<?xml version="1.0" encoding="iso-8859-1"?>
<!-- Generator: Adobe Illustrator 19.0.0, SVG Export Plug-In . SVG Version: 6.00 Build 0)  -->
<svg version="1.1" id="Capa_1" xmlns="http://www.w3.org/2000/svg" xmlns:xlink="http://www.w3.org/1999/xlink" x="0px" y="0px"
	 viewBox="0 0 512 512" style="enable-background:new 0 0 512 512;" xml:space="preserve">
<g>
	<g transform="translate(1 1)">
		<g>
			<path style="fill:#9E9D24;" d="M442.733,41.667v76.8H67.267v-76.8c-0.003-9.054,3.593-17.737,9.995-24.139
				c6.402-6.402,15.085-9.997,24.139-9.995h307.2c9.053-0.003,17.737,3.593,24.139,9.995S442.736,32.613,442.733,41.667z"/>
			<path style="fill:#9E9D24;" d="M442.733,246.467v145.067l-22.784,46.421c-1.455,2.913-4.424,4.761-7.68,4.779H97.731
				c-3.256-0.018-6.225-1.866-7.68-4.779l-22.784-46.421V246.467H442.733z"/>
		</g>
		<g>
			<path style="fill:#CDDC39;" d="M417.133,41.667v76.8H67.267v-76.8c-0.003-9.054,3.593-17.737,9.995-24.139
				c6.402-6.402,15.085-9.997,24.139-9.995H383c9.053-0.003,17.737,3.593,24.139,9.995S417.136,32.613,417.133,41.667z"/>
			<path style="fill:#CDDC39;" d="M417.133,246.467v145.067l-22.784,46.421c-1.455,2.913-4.424,4.761-7.68,4.779H97.731
				c-3.256-0.018-6.225-1.866-7.68-4.779l-22.784-46.421V246.467H417.133z"/>
		</g>
		<path style="fill:#4CAF50;" d="M152.6,41.667h204.8c9.426,0,17.067,7.641,17.067,17.067v25.6H135.533v-25.6
			C135.533,49.308,143.174,41.667,152.6,41.667z"/>
		<path style="fill:#558B30;" d="M442.733,391.533l-22.784,46.421c-1.455,2.913-4.424,4.761-7.68,4.779H97.731
			c-3.256-0.018-6.225-1.866-7.68-4.779l-22.784-46.421H442.733z"/>
		<path style="fill:#8BC34A;" d="M417.133,391.533l-22.784,46.421c-1.455,2.913-4.424,4.761-7.68,4.779H97.731
			c-3.256-0.018-6.225-1.866-7.68-4.779l-22.784-46.421H417.133z"/>
		<g>
			<path style="fill:#607D8B;" d="M101.4,442.733h68.267V485.4c0,9.426-7.641,17.067-17.067,17.067h-34.133
				c-9.426,0-17.067-7.641-17.067-17.067V442.733z"/>
			<path style="fill:#607D8B;" d="M340.333,442.733H408.6V485.4c0,9.426-7.641,17.067-17.067,17.067H357.4
				c-9.426,0-17.067-7.641-17.067-17.067V442.733z"/>
		</g>
		<g>
			<path style="fill:#F5F5F5;" d="M169.667,340.333c-0.068,9.397-7.669,16.998-17.067,17.067h-51.2v-34.133h51.2
				C162.014,323.294,169.639,330.919,169.667,340.333z"/>
			<rect x="408.6" y="323.267" style="fill:#F5F5F5;" width="34.133" height="34.133"/>
			<path style="fill:#F5F5F5;" d="M340.333,340.333c0.068,9.397,7.669,16.998,17.067,17.067h51.2v-34.133h-51.2
				C347.986,323.294,340.361,330.919,340.333,340.333z"/>
		</g>
		<g>
			<rect x="425.667" y="135.533" style="fill:#CFD8DC;" width="59.733" height="59.733"/>
			<rect x="24.6" y="135.533" style="fill:#CFD8DC;" width="59.733" height="59.733"/>
		</g>
		<rect x="67.267" y="84.333" style="fill:#00838F;" width="375.467" height="196.267"/>
		<rect x="67.267" y="84.333" style="fill:#00BCD4;" width="349.867" height="196.267"/>
		<g>
			<path style="fill:#607D8B;" d="M16.067,118.467h17.067c4.713,0,8.533,3.82,8.533,8.533v76.8c0,4.713-3.821,8.533-8.533,8.533
				H16.067c-4.713,0-8.533-3.821-8.533-8.533V127C7.533,122.287,11.354,118.467,16.067,118.467z"/>
			<path style="fill:#607D8B;" d="M493.933,212.333h-17.067c-4.713,0-8.533-3.82-8.533-8.533V127c0-4.713,3.821-8.533,8.533-8.533
				h17.067c4.713,0,8.533,3.821,8.533,8.533v76.8C502.467,208.513,498.646,212.333,493.933,212.333z"/>
		</g>
		<rect x="67.267" y="323.267" style="fill:#F5F5F5;" width="34.133" height="34.133"/>
	</g>
	<g>
		<path d="M494.933,110.933h-17.067c-9.421,0.011-17.056,7.645-17.067,17.067h-8.533V42.667C452.239,19.114,433.153,0.028,409.6,0
			H102.4C78.847,0.028,59.761,19.114,59.733,42.667V128H51.2c-0.011-9.421-7.645-17.056-17.067-17.067H17.067
			C7.645,110.944,0.011,118.579,0,128v76.8c0.011,9.421,7.645,17.056,17.067,17.067h17.067c9.421-0.011,17.056-7.645,17.067-17.067
			h8.533v187.733c0,0.123,0.065,0.225,0.07,0.347c0.037,0.884,0.214,1.757,0.522,2.587c0.068,0.184,0.107,0.372,0.188,0.55
			c0.041,0.091,0.051,0.189,0.095,0.279L83.392,442.7c2.115,4.268,5.909,7.465,10.475,8.826V486.4
			c0.015,14.132,11.468,25.585,25.6,25.6H153.6c14.132-0.015,25.585-11.468,25.6-25.6v-34.133h153.6V486.4
			c0.015,14.132,11.468,25.585,25.6,25.6h34.133c14.132-0.015,25.585-11.468,25.6-25.6v-34.873c4.561-1.357,8.353-4.55,10.467-8.814
			l22.792-46.417c0.044-0.089,0.054-0.187,0.095-0.277c0.081-0.18,0.12-0.369,0.189-0.555c0.308-0.828,0.484-1.7,0.521-2.583
			c0.005-0.122,0.07-0.224,0.07-0.348V204.8h8.533c0.011,9.421,7.645,17.056,17.067,17.067h17.067
			c9.421-0.011,17.056-7.645,17.067-17.067V128C511.989,118.579,504.355,110.944,494.933,110.933z M153.6,332.8
			c4.713,0,8.533,3.82,8.533,8.533s-3.821,8.533-8.533,8.533h-42.667V332.8H153.6z M93.867,349.867H76.8V332.8h17.067V349.867z
			 M76.8,366.933h76.8c14.138,0,25.6-11.462,25.6-25.6c0-14.138-11.462-25.6-25.6-25.6H76.8v-25.6h25.6
			c4.713,0,8.533-3.821,8.533-8.533s-3.821-8.533-8.533-8.533H76.8v-179.2h358.4v179.2H136.533c-4.713,0-8.533,3.82-8.533,8.533
			s3.821,8.533,8.533,8.533H435.2v25.6h-76.8c-14.138,0-25.6,11.462-25.6,25.6c0,14.138,11.462,25.6,25.6,25.6h76.8V384H76.8
			V366.933z M366.933,76.8H145.067V59.733c0.005-4.711,3.822-8.529,8.533-8.533h204.8c4.711,0.005,8.529,3.822,8.533,8.533V76.8z
			 M435.2,349.867h-17.067V332.8H435.2V349.867z M358.4,349.867c-4.713,0-8.533-3.821-8.533-8.533s3.82-8.533,8.533-8.533h42.667
			v17.067H358.4z M76.8,42.667c0.015-14.132,11.468-25.585,25.6-25.6h307.2c14.132,0.015,25.585,11.468,25.6,25.6V76.8H384V59.733
			c-0.015-14.132-11.468-25.585-25.6-25.6H153.6c-14.132,0.015-25.585,11.468-25.6,25.6V76.8H76.8V42.667z M17.067,204.8V128h17.067
			l0.001,8.529l-0.001,0.005v59.733l0.007,0.037l0.001,8.496H17.067z M51.2,187.733v-42.667h8.533v42.667H51.2z M162.133,486.4
			c-0.005,4.711-3.822,8.529-8.533,8.533h-34.133c-4.711-0.005-8.529-3.822-8.533-8.533v-34.133h51.2V486.4z M401.067,486.4
			c-0.005,4.711-3.822,8.529-8.533,8.533H358.4c-4.711-0.005-8.529-3.822-8.533-8.533v-34.133h51.2V486.4z M413.258,435.2
			l-314.542-0.012l-16.75-34.121h348.067L413.258,435.2z M452.267,187.733v-42.667h8.533v42.667H452.267z M494.933,204.8h-17.067
			V128h17.067V204.8z"/>
		<path d="M324.267,128h42.667c4.713,0,8.533-3.821,8.533-8.533c0-4.713-3.82-8.533-8.533-8.533h-42.667
			c-4.713,0-8.533,3.821-8.533,8.533C315.733,124.179,319.554,128,324.267,128z"/>
		<path d="M401.067,128h8.533c4.713,0,8.533-3.821,8.533-8.533c0-4.713-3.821-8.533-8.533-8.533h-8.533
			c-4.713,0-8.533,3.821-8.533,8.533C392.533,124.179,396.354,128,401.067,128z"/>
	</g>
</g>
<g>
</g>
<g>
</g>
<g>
</g>
<g>
</g>
<g>
</g>
<g>
</g>
<g>
</g>
<g>
</g>
<g>
</g>
<g>
</g>
<g>
</g>
<g>
</g>
<g>
</g>
<g>
</g>
<g>
</g>
</svg>
